<?xml version="1.0" encoding="UTF-8" standalone="no"?>
<!DOCTYPE svg PUBLIC "-//W3C//DTD SVG 1.1//EN" "http://www.w3.org/Graphics/SVG/1.1/DTD/svg11.dtd">

<!-- Created with Vectornator (http://vectornator.io/) -->
<svg height="100%" stroke-miterlimit="10" style="fill-rule:nonzero;clip-rule:evenodd;stroke-linecap:round;stroke-linejoin:round;" version="1.1" viewBox="0 0 1024 768" width="100%" xml:space="preserve" xmlns="http://www.w3.org/2000/svg" xmlns:vectornator="http://vectornator.io" xmlns:xlink="http://www.w3.org/1999/xlink">
<metadata>
<vectornator:setting key="IsTimeLapseWatermarkDisabled" value="false"/>
<vectornator:setting key="UndoHistoryDisabled" value="true"/>
<vectornator:setting key="VNDimensionsVisible" value="true"/>
<vectornator:setting key="VNSnapToGuides" value="true"/>
<vectornator:setting key="WDCMYKEnabledKey" value="false"/>
<vectornator:setting key="WDDisplayWhiteBackground" value="false"/>
<vectornator:setting key="WDDynamicGuides" value="false"/>
<vectornator:setting key="WDGuidesVisible" value="true"/>
<vectornator:setting key="WDIsolateActiveLayer" value="false"/>
<vectornator:setting key="WDOutlineMode" value="false"/>
<vectornator:setting key="WDRulersVisible" value="true"/>
<vectornator:setting key="WDSnapToEdges" value="false"/>
<vectornator:setting key="WDSnapToGrid" value="false"/>
<vectornator:setting key="WDSnapToPoints" value="false"/>
<vectornator:setting key="WDUnits" value="Pixels"/>
</metadata>
<defs>
<clipPath id="TextBounds">
<rect height="79" width="783.063" x="102.118" y="372.618"/>
</clipPath>
</defs>
<g id="Layer-1" vectornator:layerName="Layer 1">
<g opacity="1">
<path d="M92.6711 341.663L894.628 341.663L894.628 482.573L92.6711 482.573L92.6711 341.663Z" fill="none" fill-rule="evenodd" opacity="1" stroke="#bb1617" stroke-linecap="round" stroke-linejoin="round" stroke-width="8.1"/>
<g fill="#bb1617" opacity="1" stroke="none">
<path clip-path="url(#TextBounds)" d="M130.246 410.354C133.209 410.354 135.552 409.762 137.276 408.577C139.001 407.392 139.863 405.255 139.863 402.166C139.863 398.844 138.657 396.58 136.245 395.374C134.954 394.739 133.23 394.422 131.072 394.422L115.647 394.422L115.647 410.354L130.246 410.354ZM109.331 388.994L130.913 388.994C134.468 388.994 137.398 389.513 139.704 390.55C144.084 392.539 146.274 396.21 146.274 401.563C146.274 404.356 145.698 406.641 144.544 408.418C143.391 410.196 141.778 411.624 139.704 412.703C141.524 413.444 142.894 414.417 143.814 415.623C144.735 416.829 145.248 418.786 145.354 421.494L145.576 427.747C145.639 429.524 145.788 430.847 146.02 431.714C146.401 433.195 147.078 434.147 148.052 434.571L148.052 435.618L140.307 435.618C140.096 435.216 139.927 434.698 139.8 434.063C139.673 433.428 139.567 432.201 139.482 430.381L139.101 422.605C138.953 419.558 137.821 417.517 135.705 416.48C134.499 415.909 132.606 415.623 130.024 415.623L115.647 415.623L115.647 435.618L109.331 435.618L109.331 388.994Z" fill-rule="evenodd"/>
<path clip-path="url(#TextBounds)" d="M175.632 387.725C183.863 387.725 189.957 390.37 193.913 395.66C197.003 399.785 198.547 405.065 198.547 411.497C198.547 418.458 196.78 424.245 193.247 428.858C189.1 434.274 183.186 436.983 175.505 436.983C168.332 436.983 162.693 434.613 158.589 429.873C154.928 425.303 153.098 419.527 153.098 412.544C153.098 406.239 154.664 400.843 157.795 396.358C161.815 390.603 167.761 387.725 175.632 387.725ZM176.267 431.333C181.832 431.333 185.857 429.339 188.343 425.351C190.829 421.362 192.073 416.776 192.073 411.592C192.073 406.112 190.639 401.7 187.772 398.357C184.905 395.014 180.985 393.343 176.013 393.343C171.189 393.343 167.253 394.998 164.206 398.31C161.159 401.621 159.636 406.503 159.636 412.957C159.636 418.12 160.943 422.473 163.556 426.017C166.169 429.561 170.406 431.333 176.267 431.333Z" fill-rule="evenodd"/>
<path clip-path="url(#TextBounds)" d="M205.91 388.994L214.956 388.994L228.349 428.413L241.648 388.994L250.598 388.994L250.598 435.618L244.599 435.618L244.599 408.101C244.599 407.149 244.621 405.572 244.663 403.372C244.705 401.171 244.726 398.812 244.726 396.294L231.428 435.618L225.176 435.618L211.782 396.294L211.782 397.722C211.782 398.865 211.808 400.605 211.861 402.943C211.914 405.281 211.941 407.001 211.941 408.101L211.941 435.618L205.91 435.618L205.91 388.994Z" fill-rule="evenodd"/>
<path clip-path="url(#TextBounds)" d="M284.145 416.512L277.068 395.913L269.546 416.512L284.145 416.512ZM273.767 388.994L280.908 388.994L297.825 435.618L290.906 435.618L286.177 421.653L267.737 421.653L262.69 435.618L256.216 435.618L273.767 388.994Z" fill-rule="evenodd"/>
<path clip-path="url(#TextBounds)" d="M325.754 420.574C325.902 423.219 326.526 425.367 327.627 427.017C329.721 430.106 333.414 431.651 338.703 431.651C341.073 431.651 343.231 431.312 345.178 430.635C348.944 429.323 350.827 426.975 350.827 423.589C350.827 421.05 350.034 419.241 348.447 418.162C346.839 417.104 344.321 416.184 340.893 415.401L334.577 413.972C330.451 413.042 327.532 412.015 325.818 410.894C322.855 408.947 321.374 406.038 321.374 402.166C321.374 397.976 322.824 394.538 325.722 391.851C328.621 389.164 332.726 387.82 338.037 387.82C342.925 387.82 347.077 389 350.494 391.359C353.911 393.718 355.62 397.49 355.62 402.674L349.685 402.674C349.367 400.177 348.69 398.262 347.654 396.929C345.728 394.496 342.459 393.279 337.846 393.279C334.123 393.279 331.446 394.062 329.817 395.628C328.187 397.194 327.373 399.013 327.373 401.087C327.373 403.372 328.325 405.043 330.229 406.101C331.478 406.778 334.302 407.625 338.703 408.64L345.241 410.132C348.394 410.852 350.827 411.835 352.541 413.084C355.504 415.263 356.985 418.426 356.985 422.574C356.985 427.736 355.107 431.429 351.351 433.65C347.595 435.872 343.231 436.983 338.259 436.983C332.462 436.983 327.923 435.502 324.643 432.539C321.364 429.598 319.756 425.61 319.819 420.574L325.754 420.574Z" fill-rule="evenodd"/>
<path clip-path="url(#TextBounds)" d="M365.141 388.994L371.521 388.994L371.521 408.26L395.769 408.26L395.769 388.994L402.148 388.994L402.148 435.618L395.769 435.618L395.769 413.814L371.521 413.814L371.521 435.618L365.141 435.618L365.141 388.994Z" fill-rule="evenodd"/>
<path clip-path="url(#TextBounds)" d="M413.352 388.994L419.731 388.994L419.731 435.618L413.352 435.618L413.352 388.994Z" fill-rule="evenodd"/>
<path clip-path="url(#TextBounds)" d="M453.913 416.512L446.836 395.913L439.314 416.512L453.913 416.512ZM443.535 388.994L450.676 388.994L467.593 435.618L460.674 435.618L455.945 421.653L437.505 421.653L432.458 435.618L425.984 435.618L443.535 388.994Z" fill-rule="evenodd"/>
<path clip-path="url(#TextBounds)" d="M507.265 388.994L507.265 394.549L491.555 394.549L491.555 435.618L485.144 435.618L485.144 394.549L469.433 394.549L469.433 388.994L507.265 388.994Z" fill-rule="evenodd"/>
<path clip-path="url(#TextBounds)" d="M517.168 420.574C517.316 423.219 517.94 425.367 519.04 427.017C521.135 430.106 524.827 431.651 530.117 431.651C532.487 431.651 534.645 431.312 536.592 430.635C540.358 429.323 542.241 426.975 542.241 423.589C542.241 421.05 541.448 419.241 539.861 418.162C538.253 417.104 535.735 416.184 532.307 415.401L525.991 413.972C521.865 413.042 518.945 412.015 517.231 410.894C514.269 408.947 512.788 406.038 512.788 402.166C512.788 397.976 514.237 394.538 517.136 391.851C520.035 389.164 524.14 387.82 529.45 387.82C534.338 387.82 538.491 389 541.908 391.359C545.325 393.718 547.033 397.49 547.033 402.674L541.098 402.674C540.781 400.177 540.104 398.262 539.067 396.929C537.142 394.496 533.873 393.279 529.26 393.279C525.536 393.279 522.86 394.062 521.23 395.628C519.601 397.194 518.786 399.013 518.786 401.087C518.786 403.372 519.739 405.043 521.643 406.101C522.891 406.778 525.716 407.625 530.117 408.64L536.655 410.132C539.808 410.852 542.241 411.835 543.955 413.084C546.917 415.263 548.398 418.426 548.398 422.574C548.398 427.736 546.52 431.429 542.765 433.65C539.009 435.872 534.645 436.983 529.673 436.983C523.875 436.983 519.337 435.502 516.057 432.539C512.777 429.598 511.169 425.61 511.233 420.574L517.168 420.574Z" fill-rule="evenodd"/>
<path clip-path="url(#TextBounds)" d="M563.252 388.994L563.252 417.813C563.252 421.198 563.887 424.012 565.156 426.255C567.039 429.641 570.213 431.333 574.678 431.333C580.031 431.333 583.67 429.503 585.596 425.843C586.632 423.854 587.151 421.177 587.151 417.813L587.151 388.994L593.562 388.994L593.562 415.179C593.562 420.913 592.79 425.324 591.245 428.413C588.41 434.042 583.056 436.856 575.185 436.856C567.314 436.856 561.972 434.042 559.158 428.413C557.613 425.324 556.841 420.913 556.841 415.179L556.841 388.994L563.252 388.994Z" fill-rule="evenodd"/>
<path clip-path="url(#TextBounds)" d="M641.042 387.725C646.946 387.725 651.526 389.28 654.785 392.39C658.043 395.501 659.853 399.034 660.212 402.991L654.055 402.991C653.357 399.986 651.966 397.606 649.881 395.85C647.797 394.094 644.872 393.216 641.106 393.216C636.514 393.216 632.806 394.829 629.981 398.056C627.157 401.282 625.744 406.228 625.744 412.893C625.744 418.352 627.019 422.78 629.569 426.176C632.119 429.572 635.922 431.27 640.979 431.27C645.634 431.27 649.178 429.482 651.611 425.906C652.902 424.023 653.865 421.547 654.499 418.479L660.657 418.479C660.106 423.388 658.287 427.504 655.198 430.826C651.495 434.825 646.501 436.824 640.217 436.824C634.8 436.824 630.251 435.184 626.57 431.905C621.724 427.567 619.302 420.87 619.302 411.814C619.302 404.938 621.121 399.299 624.761 394.898C628.696 390.116 634.123 387.725 641.042 387.725Z" fill-rule="evenodd"/>
<path clip-path="url(#TextBounds)" d="M668.94 388.994L702.932 388.994L702.932 394.707L675.097 394.707L675.097 408.863L700.837 408.863L700.837 414.258L675.097 414.258L675.097 430.064L703.408 430.064L703.408 435.618L668.94 435.618L668.94 388.994Z" fill-rule="evenodd"/>
<path clip-path="url(#TextBounds)" d="M711.692 388.994L719.15 388.994L742.7 426.763L742.7 388.994L748.699 388.994L748.699 435.618L741.621 435.618L717.722 397.881L717.722 435.618L711.692 435.618L711.692 388.994Z" fill-rule="evenodd"/>
<path clip-path="url(#TextBounds)" d="M792.561 388.994L792.561 394.549L776.85 394.549L776.85 435.618L770.439 435.618L770.439 394.549L754.729 394.549L754.729 388.994L792.561 388.994Z" fill-rule="evenodd"/>
<path clip-path="url(#TextBounds)" d="M798.94 388.994L832.932 388.994L832.932 394.707L805.097 394.707L805.097 408.863L830.837 408.863L830.837 414.258L805.097 414.258L805.097 430.064L833.408 430.064L833.408 435.618L798.94 435.618L798.94 388.994Z" fill-rule="evenodd"/>
<path clip-path="url(#TextBounds)" d="M863.369 410.354C866.331 410.354 868.675 409.762 870.399 408.577C872.123 407.392 872.986 405.255 872.986 402.166C872.986 398.844 871.78 396.58 869.367 395.374C868.077 394.739 866.352 394.422 864.194 394.422L848.769 394.422L848.769 410.354L863.369 410.354ZM842.453 388.994L864.035 388.994C867.59 388.994 870.521 389.513 872.827 390.55C877.207 392.539 879.397 396.21 879.397 401.563C879.397 404.356 878.82 406.641 877.667 408.418C876.514 410.196 874.901 411.624 872.827 412.703C874.647 413.444 876.017 414.417 876.937 415.623C877.857 416.829 878.371 418.786 878.476 421.494L878.699 427.747C878.762 429.524 878.91 430.847 879.143 431.714C879.524 433.195 880.201 434.147 881.174 434.571L881.174 435.618L873.43 435.618C873.218 435.216 873.049 434.698 872.922 434.063C872.795 433.428 872.689 432.201 872.605 430.381L872.224 422.605C872.076 419.558 870.944 417.517 868.828 416.48C867.622 415.909 865.728 415.623 863.147 415.623L848.769 415.623L848.769 435.618L842.453 435.618L842.453 388.994Z" fill-rule="evenodd"/>
</g>
</g>
</g>
</svg>
