<?xml version="1.0" encoding="UTF-8" standalone="no"?>
<!DOCTYPE svg PUBLIC "-//W3C//DTD SVG 1.1//EN" "http://www.w3.org/Graphics/SVG/1.1/DTD/svg11.dtd">

<!-- Created with Vectornator (http://vectornator.io/) -->
<svg height="100%" stroke-miterlimit="10" style="fill-rule:nonzero;clip-rule:evenodd;stroke-linecap:round;stroke-linejoin:round;" version="1.1" viewBox="0 0 348.879 667.697" width="100%" xml:space="preserve" xmlns="http://www.w3.org/2000/svg" xmlns:vectornator="http://vectornator.io" xmlns:xlink="http://www.w3.org/1999/xlink">
<metadata>
<vectornator:setting key="IsTimeLapseWatermarkDisabled" value="false"/>
<vectornator:setting key="UndoHistoryDisabled" value="true"/>
<vectornator:setting key="VNDimensionsVisible" value="true"/>
<vectornator:setting key="VNSnapToGuides" value="true"/>
<vectornator:setting key="WDCMYKEnabledKey" value="false"/>
<vectornator:setting key="WDDisplayWhiteBackground" value="false"/>
<vectornator:setting key="WDDynamicGuides" value="false"/>
<vectornator:setting key="WDGuidesVisible" value="true"/>
<vectornator:setting key="WDIsolateActiveLayer" value="false"/>
<vectornator:setting key="WDOutlineMode" value="false"/>
<vectornator:setting key="WDRulersVisible" value="true"/>
<vectornator:setting key="WDSnapToEdges" value="false"/>
<vectornator:setting key="WDSnapToGrid" value="false"/>
<vectornator:setting key="WDSnapToPoints" value="false"/>
<vectornator:setting key="WDUnits" value="Pixels"/>
</metadata>
<defs/>
<g id="Layer-1" vectornator:layerName="Layer 1"/>
<g id="Layer-2" vectornator:layerName="Layer 2">
<g opacity="1">
<path d="M242.938 366.05C231.767 366.05 224.718 372.174 214.126 375.425C186.667 383.854 156.156 393.558 128.188 388.55C128.188 388.081 128.188 388.081 128.188 387.612C125.264 387.612 123.004 385.269 119.876 385.269C112.187 385.269 125.287 403.292 128.813 407.706C126.279 405.411 123.776 403.659 121.626 403.081C121.626 402.612 121.626 402.612 121.626 402.144C88.9315 402.144 112.907 427.55 112.907 442.456C112.907 459.553 111.593 478.042 108.97 494.956C103.995 527.023 88.3917 560.451 65.3445 581.675C55.9789 590.3 44.6027 595.912 34.3758 603.237C50.5556 605.721 72.7571 591.406 83.2508 581.206C87.4289 577.145 96.1349 563.813 98.0633 564.331C104.483 566.055 113.374 600.552 124.688 601.831C135.581 603.063 143.166 598.031 152.188 594.8C173.967 587 201.67 576.05 225.47 576.05C248.414 576.05 268.843 585.325 290.063 592.925C293.956 594.319 307.341 599.198 310.126 596.206C322.579 582.827 305.303 572.747 297.47 564.331C294.887 561.556 288.561 553.081 284.813 553.081C284.813 552.612 284.813 552.612 284.813 552.144C282.952 552.144 283.332 551.28 281.313 550.737C281.313 550.269 281.313 550.269 281.313 549.8C280.027 549.8 278.689 549.138 277.407 548.862C277.407 548.394 277.407 548.394 277.407 547.925C249.69 547.925 223.138 558.152 194.938 561.519C186.157 562.567 176.101 566.189 167.438 563.862C175.696 546.118 208.032 519.94 208.032 499.644C225.888 494.848 237.456 504.331 253.845 504.331C259.452 504.331 261.389 489.331 256.876 489.331C256.876 481.788 239.876 474.142 239.876 468.237C230.091 468.237 221.196 469.748 211.501 471.05C211.501 466.658 215.223 437.769 209.345 437.769C209.563 437.3 209.564 437.3 209.782 436.831C209.346 436.831 209.343 436.831 208.907 436.831C208.907 434.296 203.729 429.203 201.47 428.394C201.47 427.925 201.47 427.925 201.47 427.456C200.815 427.456 200.811 427.456 200.157 427.456C200.157 426.987 200.157 426.987 200.157 426.519C198.825 426.519 198.001 426.726 198.001 425.112C197.346 425.112 197.343 425.112 196.688 425.112C196.688 424.644 196.688 424.644 196.688 424.175C195.216 424.175 196.091 424.251 194.063 423.706C194.063 423.237 194.063 423.237 194.063 422.769C192.591 422.769 193.466 422.844 191.438 422.3C191.438 421.831 191.438 421.831 191.438 421.362C189.968 421.362 187.969 421.315 187.97 419.487C186.638 419.487 185.782 419.695 185.782 418.081C184.45 418.081 183.595 418.289 183.595 416.675C182.263 416.675 181.407 416.882 181.407 415.269C180.753 415.269 180.749 415.269 180.095 415.269C180.095 414.8 180.095 414.8 180.095 414.331C179.658 414.331 179.656 414.331 179.22 414.331C180.516 411.546 188.354 411.179 191.001 410.112C204.069 404.847 227.762 394.607 241.626 398.862C247.169 400.564 265.024 413.551 269.97 408.237C281.638 395.701 253.251 367.925 244.251 367.925C244.251 367.456 244.251 367.456 244.251 366.987C243.596 366.987 243.593 366.987 242.938 366.987C242.938 366.519 242.938 366.519 242.938 366.05ZM132.001 410.956C138.973 416.29 148.162 414.303 156.095 417.144C172.097 422.875 175.991 443.443 177.47 459.331C178.12 466.32 180.16 473.863 179.657 480.894C179.628 481.303 168.234 484.671 167.001 485.112C157.901 488.371 128.576 500.899 125.126 487.925C122.69 478.764 132.988 456.517 139.095 449.956C141.229 447.663 145.857 446.38 146.501 442.925C148.038 434.668 140.251 420.074 132.001 410.956ZM124.688 497.769C142.628 517.043 151.069 523.436 177.907 509.019C177.907 523.344 176.02 536.532 170.063 549.331C171.014 548.821 171.738 548.904 172.688 548.394C172.688 568.475 147.099 566.272 136.032 566.675C124.939 567.079 112.453 568.824 105.063 558.237C103.575 556.105 121.727 504.132 124.688 497.769Z" fill="#5a5a5a" fill-rule="evenodd" opacity="1" stroke="none"/>
<g opacity="1">
<path d="M253.376 70.0811C237.874 69.9141 234.436 86.1658 223.282 102.144C221.037 105.359 214.357 118.55 210.657 118.55C210.012 110.231 210.22 100.328 210.22 92.7686C209.783 92.7686 209.781 92.7686 209.345 92.7686C209.345 92.0655 209.345 92.0655 209.345 91.3623C208.908 91.3623 208.906 91.3623 208.47 91.3623C207.597 88.5498 202.782 83.3936 200.157 83.3936C200.157 82.9248 200.157 82.9248 200.157 82.4561C199.503 82.4561 199.53 82.4561 198.876 82.4561C198.876 80.7952 197.192 80.5811 195.813 80.5811C195.813 78.4878 193.336 78.7061 191.876 78.7061C191.876 78.2373 191.876 78.2373 191.876 77.7686C186.465 75.8311 161.782 72.4478 161.782 85.7373C161.782 90.4254 176.773 95.4812 179.22 100.737C186.122 115.568 183.268 138.881 182.282 153.706C181.522 165.134 152.188 184.303 152.188 193.55C162.847 190.687 173.874 172.552 182.72 165.425C184.89 186.413 197.89 186.017 213.688 191.675C179.221 216.362 172.503 225.211 167.876 269.956C166.607 282.225 168.441 306.693 180.532 314.487C192.854 322.431 205.745 310.737 217.626 310.737C225.877 310.737 233.757 313.55 241.626 313.55C239.289 328.612 245.742 342.309 262.563 340.737C266.504 340.369 278.362 333.893 275.657 328.081C278.934 326.321 275.364 319.57 277.845 318.237C275.18 306.786 279.154 288.861 279.563 276.987C279.781 278.628 279.783 278.628 280.001 280.269C279.589 270.971 277.193 255.27 281.751 247.925C284.837 242.951 292.234 243.449 294.407 237.612C295.446 234.822 294.011 227.326 291.345 225.894C291.563 225.425 291.564 225.425 291.782 224.956C287.163 222.475 282.522 211.362 276.97 211.362C276.97 210.894 276.97 210.894 276.97 210.425C276.315 210.425 276.311 210.425 275.657 210.425C275.657 209.956 275.657 209.956 275.657 209.487C275.003 209.487 274.999 209.487 274.345 209.487C274.345 209.019 274.345 209.019 274.345 208.55C272.76 207.982 273.49 208.081 272.157 208.081C272.157 205.988 269.679 206.206 268.22 206.206C268.22 205.737 268.22 205.737 268.22 205.269C261.384 203.433 253.071 205.391 245.97 205.737C238.611 206.097 180.207 214.957 185.782 232.925C202.859 232.925 217.207 218.158 232.907 216.05C237.015 215.498 248.157 222.151 248.157 227.3C248.157 235.485 247.096 244.001 246.407 252.144C245.144 251.465 245.885 251.675 244.251 251.675C244.251 251.206 244.251 251.206 244.251 250.737C242.666 250.17 243.396 250.269 242.063 250.269C242.063 249.8 242.063 249.8 242.063 249.331C240.478 248.764 241.208 248.862 239.876 248.862C239.876 248.394 239.876 248.394 239.876 247.925C217.463 239.898 211.193 265.737 191.001 265.737C191.001 263.012 186.657 263.667 186.657 260.112C186.221 260.112 186.218 260.112 185.782 260.112C186 259.644 186.001 259.644 186.22 259.175C185.069 257.939 185.854 257.106 184.47 256.362C184.688 255.894 184.689 255.894 184.907 255.425C184.471 255.425 184.468 255.425 184.032 255.425C184.25 254.956 184.251 254.956 184.47 254.487C171.933 247.753 185.944 221.083 193.626 215.581C207.304 205.784 224.899 188.741 242.063 184.644C250.703 182.581 262.108 186.992 269.97 182.769C274.394 180.392 278.621 166.362 271.282 166.362C271.282 165.894 271.282 165.894 271.282 165.425C269.697 164.857 270.427 164.956 269.095 164.956C269.095 161.522 259.372 161.053 257.313 160.737C257.313 160.269 257.313 160.269 257.313 159.8C255.309 159.262 253.706 158.394 251.657 158.394C251.657 157.925 251.657 157.925 251.657 157.456C233.685 159.602 220.133 172.456 201.47 172.456C201.47 171.987 201.47 171.987 201.47 171.519C199.109 171.011 198.001 169.48 198.001 166.831C197.564 166.831 197.562 166.831 197.126 166.831C198.643 158.682 201.792 142.456 212.813 142.456C217.623 142.456 220.764 141.909 224.157 139.175C235.044 130.403 244.711 119.82 255.595 111.05C260.427 107.156 279.187 105.706 280.438 101.675C281.633 97.823 279.126 94.6304 279.126 90.8936C278.69 90.8936 278.718 90.8936 278.282 90.8936C277.526 86.8318 273.974 80.6089 269.97 79.1748C269.97 78.7061 269.97 78.7061 269.97 78.2373C269.315 78.2373 269.311 78.2373 268.657 78.2373C268.657 77.7686 268.657 77.7686 268.657 77.2998C266.894 76.6685 267.478 75.8936 265.626 75.8936C265.626 75.4248 265.626 75.4248 265.626 74.9561C263.6 74.2305 262.839 72.8692 260.813 72.1436C260.813 71.6748 260.813 71.6748 260.813 71.2061C258.048 70.4634 255.59 70.1049 253.376 70.0811ZM218.063 271.362C218.063 279.844 206.667 290.26 204.095 298.55C204.749 298.784 204.753 298.784 205.407 299.019C214.078 280.386 231.744 282.519 245.532 275.112C245.532 284.346 244.823 293.552 244.251 302.769C242.8 303.158 239.876 303.105 239.876 300.894C221.556 294.333 217.062 301.673 198.876 305.581C198.876 297.408 194.325 279.067 190.126 272.3C194.956 272.3 199.61 276.05 205.407 276.05C209.76 276.05 213.971 271.362 218.063 271.362Z" fill="#5a5a5a" fill-rule="evenodd" opacity="1" stroke="none"/>
<path d="M103.751 64.1748C97.8803 64.1748 91.6011 65.9785 94.5945 74.0186C98.1973 83.6953 110.261 87.0613 113.782 96.5186C114.876 99.4565 114.314 100.655 114.22 104.019C113.867 116.517 116.167 129.388 113.345 141.519C110.982 151.673 84.4048 154.175 78.0008 154.175C78.0008 148.998 68.3527 153.649 79.3133 165.425C87.6094 174.338 102.434 175.737 113.345 175.737C112.671 185.874 122.987 237.612 100.251 237.612C100.251 237.144 100.251 237.144 100.251 236.675C98.4878 236.043 99.0407 235.269 97.1883 235.269C97.1883 234.8 97.1883 234.8 97.1883 234.331C95.6034 233.764 96.3645 233.862 95.032 233.862C95.032 228.266 78.2115 230.815 74.9383 232.925C59.5619 242.837 54.6388 269.522 65.782 284.487C77.5582 300.302 84.6906 280.588 91.532 273.237C92.7499 271.929 98.2194 261.939 100.251 263.394C101.539 264.316 102.596 269.352 103.313 270.894C114.476 294.879 99.7483 325.761 133.845 313.55C133.845 309.399 136.907 305.144 136.907 299.487C136.907 283.198 127.03 239.223 134.72 226.831C140.158 218.067 149.812 213.237 156.095 204.8C148.884 207.382 138.798 220.269 131.657 220.269C130.703 215.144 131.491 220.456 131.657 211.362C131.94 195.877 126.427 178.237 133.845 164.956C137.784 157.902 172.251 155.966 172.251 147.612C172.251 144.486 170.938 141.369 170.938 138.237C170.502 138.237 170.5 138.237 170.063 138.237C170.063 137.534 170.063 137.534 170.063 136.831C169.627 136.831 169.625 136.831 169.188 136.831C169.406 136.362 169.408 136.362 169.626 135.894C164.023 132.884 161.373 125.581 154.345 125.581C154.345 125.112 154.345 125.112 154.345 124.644C148.284 123.92 138.402 127.859 135.157 126.987C137.469 119.535 145.626 112.628 145.626 104.019C145.626 100.218 143.438 96.7662 143.438 93.2373C143.002 93.2373 143 93.2373 142.563 93.2373C142.781 92.7686 142.783 92.7686 143.001 92.2998C142.565 92.2998 142.593 92.2998 142.157 92.2998C142.375 91.8311 142.345 91.8311 142.563 91.3623C141.909 91.128 141.936 91.128 141.282 90.8936C141.282 87.4483 132.227 77.7686 129.063 77.7686C129.063 77.2998 129.063 77.2998 129.063 76.8311C128.409 76.8311 128.405 76.8311 127.751 76.8311C127.751 76.3623 127.751 76.3623 127.751 75.8936C121.965 73.8215 116.391 67.4561 109.407 67.4561C109.407 66.9873 109.407 66.9873 109.407 66.5186C107.291 65.7607 106.082 65.1123 103.751 65.1123C103.751 64.6436 103.751 64.6436 103.751 64.1748ZM82.8133 233.862C84.4911 237.468 89.3273 239.216 91.532 242.769C88.5153 242.769 84.9508 245.709 81.9383 246.519C81.9383 242.816 79.2301 235.787 82.8133 233.862Z" fill="#5a5a5a" fill-rule="evenodd" opacity="1" stroke="none"/>
</g>
</g>
</g>
</svg>
