<?xml version="1.0" encoding="UTF-8" standalone="no"?>
<!DOCTYPE svg PUBLIC "-//W3C//DTD SVG 1.1//EN" "http://www.w3.org/Graphics/SVG/1.1/DTD/svg11.dtd">

<!-- Created with Vectornator (http://vectornator.io/) -->
<svg height="100%" stroke-miterlimit="10" style="fill-rule:nonzero;clip-rule:evenodd;stroke-linecap:round;stroke-linejoin:round;" version="1.1" viewBox="0 0 586.708 109.939" width="100%" xml:space="preserve" xmlns="http://www.w3.org/2000/svg" xmlns:vectornator="http://vectornator.io" xmlns:xlink="http://www.w3.org/1999/xlink">
<metadata>
<vectornator:setting key="IsTimeLapseWatermarkDisabled" value="false"/>
<vectornator:setting key="UndoHistoryDisabled" value="true"/>
<vectornator:setting key="VNDimensionsVisible" value="true"/>
<vectornator:setting key="VNSnapToGuides" value="true"/>
<vectornator:setting key="WDCMYKEnabledKey" value="false"/>
<vectornator:setting key="WDDisplayWhiteBackground" value="false"/>
<vectornator:setting key="WDDynamicGuides" value="false"/>
<vectornator:setting key="WDGuidesVisible" value="true"/>
<vectornator:setting key="WDIsolateActiveLayer" value="false"/>
<vectornator:setting key="WDOutlineMode" value="false"/>
<vectornator:setting key="WDRulersVisible" value="true"/>
<vectornator:setting key="WDSnapToEdges" value="false"/>
<vectornator:setting key="WDSnapToGrid" value="false"/>
<vectornator:setting key="WDSnapToPoints" value="false"/>
<vectornator:setting key="WDUnits" value="Pixels"/>
</metadata>
<defs>
<clipPath id="TextBounds">
<rect height="66.1483" width="552.75" x="16.9791" y="21.8953"/>
</clipPath>
</defs>
<g id="Layer-1" vectornator:layerName="Layer 1">
<g fill="#ffffff" opacity="1" stroke="none">
<path clip-path="url(#TextBounds)" d="M39.0962 38.325L39.0962 54.5359L53.1587 54.5359C60.5806 54.6661 64.2264 51.9317 64.0962 46.3328C64.0962 40.9942 60.4503 38.325 53.1587 38.325L39.0962 38.325ZM70.3462 74.6531L66.2446 74.6531L51.7915 57.075L39.0962 57.075L39.0962 74.6531L36.1665 74.6531L36.1665 35.7859L54.1352 35.7859C62.4686 36.0463 66.8306 39.627 67.2212 46.5281C67.2212 53.1687 63.2498 56.6843 55.3071 57.075L70.3462 74.6531Z" fill-rule="evenodd"/>
<path clip-path="url(#TextBounds)" d="M86.3618 48.0906C79.591 48.351 76.1404 52.6479 76.0102 60.9812C76.2707 68.6635 79.7212 72.7 86.3618 73.0906C92.8722 72.9604 96.2576 68.8588 96.5181 60.7859C96.1274 52.8432 92.742 48.6114 86.3618 48.0906ZM86.1665 75.239C77.7029 74.7182 73.2759 69.9656 72.8852 60.9812C73.2759 50.9552 77.8983 45.8119 86.7524 45.5515C94.8253 45.9421 99.0571 50.9552 99.4477 60.5906C99.3175 70.226 94.8904 75.1088 86.1665 75.239Z" fill-rule="evenodd"/>
<path clip-path="url(#TextBounds)" d="M143.588 56.489L143.588 74.6531L140.659 74.6531L140.659 56.8796C140.789 50.6296 138.51 47.6349 133.823 47.8953C129.135 48.1557 126.401 51.2156 125.62 57.075L125.62 74.6531L122.885 74.6531L122.885 56.8796C123.015 50.6296 120.737 47.6349 116.049 47.8953C110.971 48.0255 108.302 51.1505 108.041 57.2703L108.041 74.6531L105.112 74.6531L105.112 46.1375L108.041 46.1375L108.041 51.8015C109.474 47.7651 112.338 45.6817 116.635 45.5515C121.713 45.5515 124.643 47.8953 125.424 52.5828C126.726 48.0255 129.721 45.6817 134.409 45.5515C140.659 45.4213 143.719 49.0671 143.588 56.489Z" fill-rule="evenodd"/>
<path clip-path="url(#TextBounds)" d="M170.932 63.325L170.932 57.6609C170.021 59.2234 166.831 60.3302 161.362 60.9812C154.721 61.502 151.596 63.7156 151.987 67.6218C151.726 71.2677 154.265 73.0255 159.604 72.8953C166.635 72.6349 170.411 69.4448 170.932 63.325ZM152.768 54.7312L150.034 53.7546C151.206 48.1557 155.372 45.4213 162.534 45.5515C170.346 45.2911 174.057 48.6765 173.666 55.7078L173.666 68.4031C173.536 71.1375 174.057 73.1557 175.229 74.4578L172.299 74.4578C171.258 73.2859 170.737 71.5281 170.737 69.1843C168.653 73.0906 164.487 75.1088 158.237 75.239C152.377 75.1088 149.383 72.5698 149.252 67.6218C149.252 62.4135 152.703 59.4187 159.604 58.6375C166.114 58.1166 169.825 57.075 170.737 55.5125C171.127 50.1739 168.393 47.6349 162.534 47.8953C156.805 47.7651 153.549 50.0437 152.768 54.7312Z" fill-rule="evenodd"/>
<path clip-path="url(#TextBounds)" d="M220.541 46.5281L223.862 45.5515C222.43 38.7807 217.482 35.3302 209.018 35.2C200.164 35.4604 195.541 38.9109 195.151 45.5515C194.89 51.0203 199.578 54.4708 209.213 55.9031C217.937 57.075 222.104 59.8744 221.713 64.3015C221.193 69.7703 217.351 72.6349 210.19 72.8953C202.377 72.8953 197.95 69.3797 196.909 62.3484L193.588 63.5203C195.411 71.5932 201.01 75.4994 210.385 75.239C219.37 74.8484 224.187 71.3328 224.838 64.6921C225.229 58.4421 220.346 54.6661 210.19 53.364C201.987 52.0619 198.015 49.4578 198.276 45.5515C198.927 40.7338 202.573 38.1948 209.213 37.9343C215.724 38.0645 219.5 40.9291 220.541 46.5281Z" fill-rule="evenodd"/>
<path clip-path="url(#TextBounds)" d="M254.135 56.489L254.135 74.6531L251.401 74.6531L251.401 56.8796C251.531 50.7599 248.927 47.7651 243.588 47.8953C237.599 48.1557 234.409 51.6713 234.018 58.4421L234.018 74.6531L231.088 74.6531L231.088 35.7859L234.018 35.7859L234.018 51.9968C235.971 47.9604 239.357 45.8119 244.174 45.5515C250.945 45.4213 254.265 49.0671 254.135 56.489Z" fill-rule="evenodd"/>
<path clip-path="url(#TextBounds)" d="M261.362 74.6531L264.291 74.6531L264.291 46.1375L261.362 46.1375L261.362 74.6531ZM261.362 39.8875L264.291 39.8875L264.291 35.5906L261.362 35.5906L261.362 39.8875Z" fill-rule="evenodd"/>
<path clip-path="url(#TextBounds)" d="M291.831 63.325L291.831 57.6609C290.919 59.2234 287.729 60.3302 282.26 60.9812C275.62 61.502 272.495 63.7156 272.885 67.6218C272.625 71.2677 275.164 73.0255 280.502 72.8953C287.534 72.6349 291.31 69.4448 291.831 63.325ZM273.666 54.7312L270.932 53.7546C272.104 48.1557 276.271 45.4213 283.432 45.5515C291.245 45.2911 294.956 48.6765 294.565 55.7078L294.565 68.4031C294.435 71.1375 294.956 73.1557 296.127 74.4578L293.198 74.4578C292.156 73.2859 291.635 71.5281 291.635 69.1843C289.552 73.0906 285.385 75.1088 279.135 75.239C273.276 75.1088 270.281 72.5698 270.151 67.6218C270.151 62.4135 273.601 59.4187 280.502 58.6375C287.013 58.1166 290.724 57.075 291.635 55.5125C292.026 50.1739 289.291 47.6349 283.432 47.8953C277.703 47.7651 274.448 50.0437 273.666 54.7312Z" fill-rule="evenodd"/>
<path clip-path="url(#TextBounds)" d="M312.338 72.8953L312.729 74.0671C311.818 74.8484 310.45 75.239 308.627 75.239C304.982 75.3692 303.224 73.4161 303.354 69.3796L303.354 48.6765L298.862 48.6765L298.862 46.3328L303.354 46.3328L303.354 37.9343L306.284 36.3718L306.284 46.3328L312.143 46.3328L312.143 48.6765L306.284 48.6765L306.284 69.3796C306.153 72.114 307.26 73.351 309.604 73.0906C310.646 73.0906 311.557 73.0255 312.338 72.8953Z" fill-rule="evenodd"/>
<path clip-path="url(#TextBounds)" d="M334.604 53.95L337.338 52.9734C336.297 48.0255 332.651 45.5515 326.401 45.5515C320.021 45.8119 316.635 48.4812 316.245 53.5593C315.854 57.726 319.5 60.3953 327.182 61.5671C333.302 62.4786 336.166 64.4317 335.776 67.4265C335.515 71.0724 332.651 72.8953 327.182 72.8953C321.844 73.0255 318.719 70.7468 317.807 66.0593L315.073 66.8406C316.635 72.5698 320.672 75.3692 327.182 75.239C334.604 75.1088 338.445 72.4395 338.706 67.2312C338.966 63.0645 335.45 60.3953 328.159 59.2234C321.518 58.1817 318.458 56.2937 318.979 53.5593C319.109 49.9135 321.713 48.0906 326.791 48.0906C331.088 48.0906 333.693 50.0437 334.604 53.95Z" fill-rule="evenodd"/>
<path clip-path="url(#TextBounds)" d="M365.463 46.3328L368.198 46.3328L368.198 74.6531L365.463 74.6531L365.463 69.1843C363.38 72.9604 359.995 74.9786 355.307 75.239C348.406 75.3692 345.021 71.8536 345.151 64.6921L345.151 46.1375L347.885 46.1375L347.885 64.3015C347.755 70.1609 350.424 73.0255 355.893 72.8953C361.622 72.6349 364.812 69.5099 365.463 63.5203L365.463 46.3328Z" fill-rule="evenodd"/>
<path clip-path="url(#TextBounds)" d="M419.76 61.5671L423.081 62.5437C420.997 70.877 415.333 75.1088 406.088 75.239C394.89 74.4578 389.031 67.9474 388.51 55.7078C389.161 42.6869 395.216 35.851 406.674 35.2C414.226 35.4604 419.435 39.2364 422.299 46.5281L418.979 47.3093C416.765 41.3198 412.534 38.1948 406.284 37.9343C397.169 38.7156 392.286 44.5099 391.635 55.3171C392.156 66.2547 396.909 72.114 405.893 72.8953C413.445 72.8953 418.068 69.1192 419.76 61.5671Z" fill-rule="evenodd"/>
<path clip-path="url(#TextBounds)" d="M430.698 59.2234L450.62 59.2234C450.489 51.9317 447.234 48.2208 440.854 48.0906C434.474 48.4812 431.088 52.1921 430.698 59.2234ZM450.62 66.0593L453.549 66.8406C451.987 72.4395 447.82 75.239 441.049 75.239C432.195 74.8484 427.638 70.0307 427.377 60.7859C427.768 51.1505 432.26 46.0724 440.854 45.5515C449.187 45.8119 453.484 50.9552 453.745 60.9812C453.745 61.2416 453.745 61.4369 453.745 61.5671L430.502 61.5671C430.763 68.8588 434.213 72.6349 440.854 72.8953C446.323 72.8953 449.578 70.6166 450.62 66.0593Z" fill-rule="evenodd"/>
<path clip-path="url(#TextBounds)" d="M482.651 56.489L482.651 74.6531L479.916 74.6531L479.916 56.8796C480.047 50.7599 477.377 47.7651 471.909 47.8953C466.44 48.2859 463.25 51.3458 462.338 57.075L462.338 74.6531L459.604 74.6531L459.604 46.3328L462.338 46.3328L462.338 52.1921C464.552 47.8953 468.002 45.6817 472.69 45.5515C479.461 45.4213 482.781 49.0671 482.651 56.489Z" fill-rule="evenodd"/>
<path clip-path="url(#TextBounds)" d="M500.424 72.8953L500.815 74.0671C499.903 74.8484 498.536 75.239 496.713 75.239C493.068 75.3692 491.31 73.4161 491.44 69.3796L491.44 48.6765L486.948 48.6765L486.948 46.3328L491.44 46.3328L491.44 37.9343L494.37 36.3718L494.37 46.3328L500.229 46.3328L500.229 48.6765L494.37 48.6765L494.37 69.3796C494.239 72.114 495.346 73.351 497.69 73.0906C498.732 73.0906 499.643 73.0255 500.424 72.8953Z" fill-rule="evenodd"/>
<path clip-path="url(#TextBounds)" d="M506.674 59.2234L526.596 59.2234C526.466 51.9317 523.211 48.2208 516.831 48.0906C510.45 48.4812 507.065 52.1921 506.674 59.2234ZM526.596 66.0593L529.526 66.8406C527.963 72.4395 523.797 75.239 517.026 75.239C508.172 74.8484 503.614 70.0307 503.354 60.7859C503.745 51.1505 508.237 46.0724 516.831 45.5515C525.164 45.8119 529.461 50.9552 529.721 60.9812C529.721 61.2416 529.721 61.4369 529.721 61.5671L506.479 61.5671C506.739 68.8588 510.19 72.6349 516.831 72.8953C522.299 72.8953 525.555 70.6166 526.596 66.0593Z" fill-rule="evenodd"/>
<path clip-path="url(#TextBounds)" d="M549.643 49.8484L551.01 47.114C549.448 45.9421 547.69 45.4213 545.737 45.5515C542.091 45.8119 539.617 47.8302 538.315 51.6062L538.12 51.6062L538.12 46.3328L535.385 46.3328L535.385 74.6531L538.12 74.6531L538.12 59.2234C538.38 52.4526 540.789 48.8718 545.346 48.4812C547.169 48.4812 548.601 48.9369 549.643 49.8484Z" fill-rule="evenodd"/>
</g>
</g>
</svg>
