<?xml version="1.0" encoding="UTF-8" standalone="no"?>
<!DOCTYPE svg PUBLIC "-//W3C//DTD SVG 1.1//EN" "http://www.w3.org/Graphics/SVG/1.1/DTD/svg11.dtd">

<!-- Created with Vectornator (http://vectornator.io/) -->
<svg height="100%" stroke-miterlimit="10" style="fill-rule:nonzero;clip-rule:evenodd;stroke-linecap:round;stroke-linejoin:round;" version="1.1" viewBox="0 0 1269.69 201.611" width="100%" xml:space="preserve" xmlns="http://www.w3.org/2000/svg" xmlns:vectornator="http://vectornator.io" xmlns:xlink="http://www.w3.org/1999/xlink">
<metadata>
<vectornator:setting key="IsTimeLapseWatermarkDisabled" value="false"/>
<vectornator:setting key="UndoHistoryDisabled" value="true"/>
<vectornator:setting key="VNDimensionsVisible" value="true"/>
<vectornator:setting key="VNSnapToGuides" value="true"/>
<vectornator:setting key="WDCMYKEnabledKey" value="false"/>
<vectornator:setting key="WDDisplayWhiteBackground" value="false"/>
<vectornator:setting key="WDDynamicGuides" value="false"/>
<vectornator:setting key="WDGuidesVisible" value="true"/>
<vectornator:setting key="WDIsolateActiveLayer" value="false"/>
<vectornator:setting key="WDOutlineMode" value="false"/>
<vectornator:setting key="WDRulersVisible" value="true"/>
<vectornator:setting key="WDSnapToEdges" value="false"/>
<vectornator:setting key="WDSnapToGrid" value="false"/>
<vectornator:setting key="WDSnapToPoints" value="false"/>
<vectornator:setting key="WDUnits" value="Pixels"/>
</metadata>
<defs>
<clipPath id="TextBounds">
<rect height="95.2987" width="1249.17" x="20.8383" y="52.6817"/>
</clipPath>
</defs>
<g id="Layer-1" vectornator:layerName="Layer 1">
<g opacity="1">
<g fill="#bb1617" opacity="1" stroke="none">
<path clip-path="url(#TextBounds)" d="M101.132 140.142L89.3598 140.142L61.2378 103.736L57.9678 103.736L57.9678 140.142L48.5938 140.142L48.5938 60.3537L64.9438 60.3537C73.6638 60.3537 79.6588 60.7352 82.9288 61.4982C86.1988 62.2612 89.0328 63.551 91.4308 65.3677C93.8288 67.1843 95.7181 69.5278 97.0988 72.3982C98.4795 75.2685 99.1698 78.4477 99.1698 81.9357C99.1698 88.5483 96.9171 93.8348 92.4118 97.7952C87.9065 101.756 81.4028 103.736 72.9008 103.736L101.132 140.142ZM57.9678 94.5797L70.7208 94.5797C77.1155 94.6523 81.8388 93.6895 84.8908 91.6912C87.9428 89.6928 89.4688 86.4955 89.4688 82.0992C89.4688 77.7028 87.9791 74.5055 84.9998 72.5072C82.0205 70.5088 77.3698 69.5097 71.0478 69.5097L57.9678 69.5097L57.9678 94.5797Z" fill-rule="evenodd"/>
<path clip-path="url(#TextBounds)" d="M152.471 58.3917C160.246 58.3917 167.404 60.2265 173.944 63.8962C180.484 67.5658 185.625 72.6343 189.367 79.1017C193.11 85.569 194.981 92.5995 194.981 100.193C194.981 107.787 193.128 114.817 189.422 121.285C185.716 127.752 180.629 132.839 174.162 136.545C167.694 140.251 160.664 142.104 153.07 142.104C145.477 142.104 138.41 140.269 131.87 136.599C125.33 132.93 120.207 127.879 116.501 121.448C112.795 115.017 110.942 108.005 110.942 100.411C110.942 92.8175 112.795 85.7688 116.501 79.2652C120.207 72.7615 125.275 67.6567 131.706 63.9507C138.137 60.2447 145.059 58.3917 152.471 58.3917ZM152.798 132.948C161.881 132.948 169.566 129.859 175.851 123.683C182.137 117.506 185.28 109.767 185.28 100.466C185.28 91.1643 182.101 83.3527 175.742 77.0307C169.384 70.7087 161.736 67.5477 152.798 67.5477C143.642 67.5477 135.994 70.7268 129.853 77.0852C123.713 83.4435 120.643 91.1825 120.643 100.302C120.643 109.422 123.804 117.143 130.126 123.465C136.448 129.787 144.005 132.948 152.798 132.948Z" fill-rule="evenodd"/>
<path clip-path="url(#TextBounds)" d="M295.37 140.142L286.105 140.142L278.693 85.8597L251.879 140.142L249.045 140.142L221.904 85.4237L214.492 140.142L205.445 140.142L216.781 60.3537L219.07 60.3537L250.462 123.683L281.636 60.3537L283.925 60.3537L295.37 140.142Z" fill-rule="evenodd"/>
<path clip-path="url(#TextBounds)" d="M379.627 140.142L369.708 140.142L357.391 113.437L324.473 113.437L312.265 140.142L301.91 140.142L339.624 57.1927L342.458 57.1927L379.627 140.142ZM353.14 103.954L341.041 77.0307L328.833 103.954L353.14 103.954Z" fill-rule="evenodd"/>
<path clip-path="url(#TextBounds)" d="M447.861 77.9027C444.954 73.9787 442.483 71.3445 440.449 70.0002C438.414 68.6558 436.034 67.9837 433.309 67.9837C430.584 67.9837 428.295 68.8557 426.442 70.5997C424.589 72.3437 423.663 74.5782 423.663 77.3032C423.663 80.0282 424.535 82.408 426.279 84.4427C428.023 86.4773 432.038 89.8018 438.323 94.4162C444.609 99.0305 449.205 103.372 452.112 107.442C455.018 111.511 456.472 115.798 456.472 120.304C456.472 126.19 454.201 131.295 449.659 135.618C445.118 139.942 439.831 142.104 433.8 142.104C423.19 142.104 414.87 136.181 408.839 124.337L416.796 119.759C421.519 128.551 426.824 132.948 432.71 132.948C436.488 132.948 439.722 131.749 442.411 129.351C445.099 126.953 446.444 124.155 446.444 120.958C446.444 117.76 445.317 114.727 443.065 111.856C440.812 108.986 436.924 105.462 431.402 101.283C425.879 97.1048 422.082 93.9257 420.011 91.7457C417.94 89.5657 416.432 87.2403 415.488 84.7697C414.543 82.299 414.071 79.8283 414.071 77.3577C414.071 72.053 415.906 67.5658 419.575 63.8962C423.245 60.2265 427.986 58.3917 433.8 58.3917C438.305 58.3917 442.229 59.5362 445.572 61.8252C448.914 64.1142 452.184 67.5113 455.382 72.0167L447.861 77.9027Z" fill-rule="evenodd"/>
<path clip-path="url(#TextBounds)" d="M528.412 140.142L519.038 140.142L519.038 102.319L480.779 102.319L480.779 140.142L471.296 140.142L471.296 60.3537L480.779 60.3537L480.779 93.1627L519.038 93.1627L519.038 60.3537L528.412 60.3537L528.412 140.142Z" fill-rule="evenodd"/>
<path clip-path="url(#TextBounds)" d="M554.136 140.142L544.762 140.142L544.762 60.3537L554.136 60.3537L554.136 140.142Z" fill-rule="evenodd"/>
<path clip-path="url(#TextBounds)" d="M640.9 140.142L630.981 140.142L618.664 113.437L585.746 113.437L573.538 140.142L563.183 140.142L600.897 57.1927L603.731 57.1927L640.9 140.142ZM614.413 103.954L602.314 77.0307L590.106 103.954L614.413 103.954Z" fill-rule="evenodd"/>
<path clip-path="url(#TextBounds)" d="M687.879 69.5097L670.439 69.5097L670.439 140.142L660.956 140.142L660.956 69.5097L643.407 69.5097L643.407 60.3537L687.879 60.3537L687.879 69.5097Z" fill-rule="evenodd"/>
<path clip-path="url(#TextBounds)" d="M728.318 77.9027C725.411 73.9787 722.94 71.3445 720.906 70.0002C718.871 68.6558 716.491 67.9837 713.766 67.9837C711.041 67.9837 708.752 68.8557 706.899 70.5997C705.046 72.3437 704.12 74.5782 704.12 77.3032C704.12 80.0282 704.992 82.408 706.736 84.4427C708.48 86.4773 712.495 89.8018 718.78 94.4162C725.066 99.0305 729.662 103.372 732.569 107.442C735.475 111.511 736.929 115.798 736.929 120.304C736.929 126.19 734.658 131.295 730.116 135.618C725.575 139.942 720.288 142.104 714.257 142.104C703.647 142.104 695.327 136.181 689.296 124.337L697.253 119.759C701.976 128.551 707.281 132.948 713.167 132.948C716.945 132.948 720.179 131.749 722.868 129.351C725.556 126.953 726.901 124.155 726.901 120.958C726.901 117.76 725.774 114.727 723.522 111.856C721.269 108.986 717.381 105.462 711.859 101.283C706.336 97.1048 702.539 93.9257 700.468 91.7457C698.397 89.5657 696.889 87.2403 695.945 84.7697C695 82.299 694.528 79.8283 694.528 77.3577C694.528 72.053 696.363 67.5658 700.032 63.8962C703.702 60.2265 708.443 58.3917 714.257 58.3917C718.762 58.3917 722.686 59.5362 726.029 61.8252C729.371 64.1142 732.641 67.5113 735.839 72.0167L728.318 77.9027Z" fill-rule="evenodd"/>
<path clip-path="url(#TextBounds)" d="M805.49 108.314C805.49 116.38 804.672 122.575 803.037 126.898C801.402 131.222 798.496 134.837 794.317 137.744C790.139 140.65 785.252 142.104 779.657 142.104C775.224 142.104 771.227 141.395 767.667 139.978C764.106 138.561 761.145 136.563 758.783 133.983C756.422 131.404 754.732 128.533 753.715 125.372C752.697 122.211 752.189 116.525 752.189 108.314L752.189 60.3537L761.563 60.3537L761.563 108.314C761.563 113.473 761.708 117.197 761.999 119.486C762.289 121.775 763.125 123.992 764.506 126.135C765.886 128.279 767.867 129.987 770.446 131.258C773.026 132.53 775.951 133.166 779.221 133.166C783.145 133.166 786.542 132.021 789.412 129.732C792.283 127.443 794.136 124.791 794.971 121.775C795.807 118.76 796.225 114.272 796.225 108.314L796.225 60.3537L805.49 60.3537L805.49 108.314Z" fill-rule="evenodd"/>
<path clip-path="url(#TextBounds)" d="M925.39 125.536C916.815 136.581 905.043 142.104 890.074 142.104C877.43 142.104 867.075 138.107 859.009 130.114C850.943 122.12 846.91 112.02 846.91 99.8117C846.91 92.2543 848.781 85.2783 852.523 78.8837C856.266 72.489 861.443 67.475 868.056 63.8417C874.668 60.2083 881.808 58.3917 889.474 58.3917C897.141 58.3917 904.008 59.8632 910.075 62.8062C916.143 65.7492 921.211 70.0547 925.281 75.7227L918.087 81.2817C910.529 72.1257 901.192 67.5477 890.074 67.5477C880.99 67.5477 873.161 70.745 866.584 77.1397C860.008 83.5343 856.72 91.3642 856.72 100.629C856.72 109.894 859.935 117.633 866.366 123.846C872.797 130.059 881.136 133.166 891.382 133.166C901.628 133.166 910.529 128.769 918.087 119.977L925.39 125.536Z" fill-rule="evenodd"/>
<path clip-path="url(#TextBounds)" d="M985.667 69.6187L948.607 69.6187L948.607 92.5087L985.34 92.5087L985.34 101.665L948.607 101.665L948.607 130.877L985.34 130.877L985.34 140.142L939.233 140.142L939.233 60.3537L985.667 60.3537L985.667 69.6187Z" fill-rule="evenodd"/>
<path clip-path="url(#TextBounds)" d="M1060.66 140.142L1057.82 140.142L1007.25 82.2627L1007.25 140.142L997.657 140.142L997.657 60.3537L1000.49 60.3537L1051.39 118.996L1051.39 60.3537L1060.66 60.3537L1060.66 140.142Z" fill-rule="evenodd"/>
<path clip-path="url(#TextBounds)" d="M1114.94 69.5097L1097.5 69.5097L1097.5 140.142L1088.02 140.142L1088.02 69.5097L1070.47 69.5097L1070.47 60.3537L1114.94 60.3537L1114.94 69.5097Z" fill-rule="evenodd"/>
<path clip-path="url(#TextBounds)" d="M1171.18 69.6187L1134.12 69.6187L1134.12 92.5087L1170.86 92.5087L1170.86 101.665L1134.12 101.665L1134.12 130.877L1170.86 130.877L1170.86 140.142L1124.75 140.142L1124.75 60.3537L1171.18 60.3537L1171.18 69.6187Z" fill-rule="evenodd"/>
<path clip-path="url(#TextBounds)" d="M1236.04 140.142L1224.27 140.142L1196.15 103.736L1192.88 103.736L1192.88 140.142L1183.5 140.142L1183.5 60.3537L1199.85 60.3537C1208.57 60.3537 1214.57 60.7352 1217.84 61.4982C1221.11 62.2612 1223.94 63.551 1226.34 65.3677C1228.74 67.1843 1230.63 69.5278 1232.01 72.3982C1233.39 75.2685 1234.08 78.4477 1234.08 81.9357C1234.08 88.5483 1231.83 93.8348 1227.32 97.7952C1222.81 101.756 1216.31 103.736 1207.81 103.736L1236.04 140.142ZM1192.88 94.5797L1205.63 94.5797C1212.02 94.6523 1216.75 93.6895 1219.8 91.6912C1222.85 89.6928 1224.38 86.4955 1224.38 82.0992C1224.38 77.7028 1222.89 74.5055 1219.91 72.5072C1216.93 70.5088 1212.28 69.5097 1205.96 69.5097L1192.88 69.5097L1192.88 94.5797Z" fill-rule="evenodd"/>
</g>
<path d="M42.4787 21.0223L1238.37 21.0223C1249.42 21.0223 1258.37 29.979 1258.37 41.0277L1258.37 159.634C1258.37 170.683 1249.42 179.64 1238.37 179.64L42.4787 179.64C31.43 179.64 22.4733 170.683 22.4733 159.634L22.4733 41.0277C22.4733 29.979 31.43 21.0223 42.4787 21.0223Z" fill="none" fill-rule="evenodd" opacity="1" stroke="#bb1617" stroke-linecap="round" stroke-linejoin="round" stroke-width="10"/>
</g>
</g>
</svg>
