<?xml version="1.0" encoding="UTF-8" standalone="no"?>
<!DOCTYPE svg PUBLIC "-//W3C//DTD SVG 1.1//EN" "http://www.w3.org/Graphics/SVG/1.1/DTD/svg11.dtd">

<!-- Created with Vectornator (http://vectornator.io/) -->
<svg height="100%" stroke-miterlimit="10" style="fill-rule:nonzero;clip-rule:evenodd;stroke-linecap:round;stroke-linejoin:round;" version="1.1" viewBox="0 0 1024 1024" width="100%" xml:space="preserve" xmlns="http://www.w3.org/2000/svg" xmlns:vectornator="http://vectornator.io" xmlns:xlink="http://www.w3.org/1999/xlink">
<metadata>
<vectornator:setting key="IsTimeLapseWatermarkDisabled" value="false"/>
<vectornator:setting key="UndoHistoryDisabled" value="true"/>
<vectornator:setting key="VNDimensionsVisible" value="true"/>
<vectornator:setting key="VNSnapToGuides" value="true"/>
<vectornator:setting key="WDCMYKEnabledKey" value="false"/>
<vectornator:setting key="WDDisplayWhiteBackground" value="false"/>
<vectornator:setting key="WDDynamicGuides" value="false"/>
<vectornator:setting key="WDGuidesVisible" value="true"/>
<vectornator:setting key="WDIsolateActiveLayer" value="false"/>
<vectornator:setting key="WDOutlineMode" value="false"/>
<vectornator:setting key="WDRulersVisible" value="true"/>
<vectornator:setting key="WDSnapToEdges" value="false"/>
<vectornator:setting key="WDSnapToGrid" value="false"/>
<vectornator:setting key="WDSnapToPoints" value="false"/>
<vectornator:setting key="WDUnits" value="Pixels"/>
</metadata>
<defs/>
<g id="Layer-1" vectornator:layerName="Layer 1">
<g opacity="1">
<path d="M66.8897 34.1519L957.11 34.1519C968.557 34.1519 977.837 44.4361 977.837 57.1222L977.837 942.856C977.837 955.542 968.557 965.826 957.11 965.826L66.8897 965.826C55.4426 965.826 46.163 955.542 46.163 942.856L46.163 57.1222C46.163 44.4361 55.4426 34.1519 66.8897 34.1519Z" fill="#da0a02" fill-rule="evenodd" opacity="1" stroke="none"/>
<g opacity="1">
<path d="M608.463 545.337C592.732 545.337 582.804 553.96 567.888 558.539C529.219 570.409 486.253 584.075 446.867 577.022C446.867 576.362 446.867 576.362 446.867 575.702C442.749 575.702 439.566 572.401 435.161 572.401C424.333 572.401 442.782 597.782 447.747 603.999C444.178 600.767 440.653 598.299 437.625 597.486C437.625 596.826 437.625 596.826 437.625 596.165C391.584 596.165 425.347 631.943 425.347 652.935C425.347 677.012 423.497 703.049 419.802 726.868C412.797 772.026 390.824 819.101 358.367 848.989C345.178 861.135 329.158 869.039 314.756 879.355C337.541 882.852 368.806 862.694 383.584 848.329C389.468 842.61 401.728 823.836 404.443 824.565C413.484 826.993 426.005 875.572 441.938 877.374C457.278 879.109 467.959 872.023 480.665 867.473C511.334 856.489 550.347 841.068 583.863 841.068C616.174 841.068 644.943 854.13 674.827 864.832C680.309 866.795 699.157 873.667 703.079 869.453C720.616 850.612 696.287 836.416 685.256 824.565C681.619 820.658 672.71 808.722 667.433 808.722C667.433 808.062 667.433 808.062 667.433 807.402C664.812 807.402 665.347 806.185 662.504 805.422C662.504 804.762 662.504 804.762 662.504 804.102C660.693 804.102 658.809 803.169 657.003 802.781C657.003 802.121 657.003 802.121 657.003 801.461C617.972 801.461 580.579 815.864 540.867 820.604C528.502 822.081 514.34 827.182 502.14 823.905C513.77 798.916 559.306 762.052 559.306 733.469C584.452 726.715 600.743 740.071 623.822 740.07C631.719 740.07 634.446 718.947 628.09 718.947C628.09 708.325 604.15 697.557 604.15 689.242C590.371 689.242 577.845 691.369 564.191 693.202C564.191 687.017 569.433 646.334 561.155 646.334C561.462 645.674 561.464 645.674 561.771 645.014C561.156 645.014 561.153 645.014 560.539 645.014C560.539 641.443 553.247 634.271 550.065 633.132C550.065 632.472 550.065 632.472 550.065 631.812C549.143 631.812 549.138 631.812 548.217 631.812C548.217 631.152 548.217 631.152 548.217 630.491C546.341 630.491 545.18 630.784 545.18 628.511C544.258 628.511 544.253 628.511 543.332 628.511C543.332 627.851 543.332 627.851 543.332 627.191C541.258 627.191 542.49 627.298 539.635 626.531C539.635 625.871 539.635 625.871 539.635 625.21C537.562 625.21 538.793 625.317 535.938 624.55C535.938 623.89 535.938 623.89 535.938 623.23C533.867 623.23 531.053 623.164 531.054 620.59C529.178 620.59 527.973 620.882 527.973 618.609C526.098 618.609 524.892 618.902 524.892 616.629C523.017 616.629 521.812 616.921 521.812 614.649C520.89 614.649 520.885 614.649 519.964 614.649C519.964 613.989 519.964 613.988 519.964 613.328C519.349 613.328 519.346 613.328 518.731 613.328C520.557 609.406 531.595 608.889 535.322 607.387C553.726 599.973 587.091 585.552 606.615 591.545C614.421 593.941 639.565 612.229 646.53 604.747C662.962 587.093 622.986 547.977 610.311 547.977C610.311 547.317 610.311 547.317 610.311 546.657C609.39 546.657 609.385 546.657 608.463 546.657C608.463 545.997 608.463 545.997 608.463 545.337ZM452.236 608.576C462.055 616.087 474.994 613.288 486.166 617.289C508.701 625.36 514.185 654.326 516.267 676.699C517.183 686.542 520.056 697.164 519.347 707.065C519.306 707.642 503.261 712.384 501.524 713.006C488.71 717.595 447.413 735.238 442.554 716.966C439.123 704.066 453.626 672.736 462.226 663.497C465.231 660.268 471.749 658.462 472.655 653.595C474.82 641.968 463.855 621.416 452.236 608.576ZM441.938 730.829C467.202 757.972 479.089 766.974 516.883 746.672C516.883 766.845 514.226 785.417 505.837 803.441C507.175 802.723 508.196 802.84 509.534 802.121C509.534 830.401 473.497 827.298 457.913 827.866C442.291 828.435 424.708 830.892 414.301 815.984C412.205 812.981 437.767 739.79 441.938 730.829Z" fill="#ffffff" fill-rule="evenodd" opacity="1" stroke="none"/>
<g opacity="1">
<path d="M623.162 128.54C601.332 128.305 596.49 151.191 580.782 173.692C577.621 178.22 568.213 196.796 563.003 196.796C562.094 185.081 562.387 171.135 562.387 160.49C561.773 160.49 561.769 160.49 561.155 160.49C561.155 159.499 561.155 159.499 561.155 158.509C560.54 158.509 560.537 158.509 559.923 158.509C558.694 154.549 551.913 147.287 548.217 147.287C548.217 146.627 548.217 146.627 548.217 145.967C547.295 145.967 547.334 145.967 546.412 145.967C546.412 143.628 544.042 143.327 542.099 143.327C542.099 140.379 538.61 140.686 536.554 140.686C536.554 140.026 536.554 140.026 536.554 139.366C528.935 136.637 494.175 131.873 494.175 150.588C494.175 157.19 515.287 164.31 518.731 171.712C528.451 192.597 524.432 225.427 523.044 246.305C521.974 262.398 480.665 289.393 480.665 302.414C495.674 298.383 511.203 272.845 523.66 262.807C526.717 292.364 545.024 291.806 567.272 299.774C518.734 334.539 509.273 347.001 502.757 410.013C500.97 427.291 503.553 461.748 520.58 472.724C537.932 483.91 556.086 467.443 572.817 467.443C584.437 467.443 595.534 471.404 606.615 471.404C603.324 492.615 612.411 511.903 636.1 509.69C641.649 509.172 658.348 500.052 654.539 491.867C659.154 489.388 654.126 479.881 657.62 478.005C653.867 461.879 659.464 436.635 660.04 419.915C660.347 422.225 660.349 422.225 660.656 424.536C660.076 411.442 656.702 389.331 663.12 378.988C667.466 371.984 677.883 372.685 680.944 364.465C682.406 360.536 680.386 349.979 676.631 347.962C676.938 347.302 676.94 347.302 677.247 346.642C670.742 343.148 664.206 327.499 656.387 327.499C656.387 326.839 656.387 326.839 656.387 326.178C655.466 326.178 655.461 326.178 654.539 326.178C654.539 325.518 654.539 325.518 654.539 324.858C653.617 324.858 653.612 324.858 652.691 324.858C652.691 324.198 652.691 324.198 652.691 323.538C650.459 322.739 651.487 322.878 649.61 322.878C649.61 319.93 646.121 320.237 644.065 320.237C644.065 319.577 644.065 319.577 644.065 318.917C634.439 316.332 622.732 319.089 612.732 319.577C602.369 320.083 520.123 332.561 527.973 357.864C552.022 357.864 572.228 337.069 594.337 334.1C600.121 333.323 615.812 342.691 615.812 349.943C615.812 361.47 614.318 373.462 613.348 384.929C611.569 383.973 612.613 384.269 610.311 384.269C610.311 383.608 610.311 383.608 610.311 382.948C608.079 382.149 609.107 382.288 607.231 382.288C607.231 381.628 607.231 381.628 607.231 380.968C604.999 380.169 606.027 380.308 604.15 380.308C604.15 379.648 604.15 379.648 604.15 378.988C572.587 367.684 563.758 404.072 535.322 404.072C535.322 400.234 529.205 401.157 529.205 396.151C528.591 396.151 528.587 396.151 527.973 396.151C528.28 395.491 528.282 395.491 528.589 394.83C526.969 393.09 528.075 391.917 526.125 390.87C526.432 390.21 526.434 390.21 526.741 389.549C526.126 389.549 526.123 389.549 525.509 389.549C525.816 388.889 525.817 388.889 526.125 388.229C508.47 378.745 528.201 341.188 539.019 333.44C558.281 319.643 583.06 295.643 607.231 289.872C619.398 286.967 635.459 293.179 646.53 287.232C652.76 283.885 658.713 264.128 648.378 264.128C648.378 263.468 648.378 263.468 648.378 262.807C646.146 262.008 647.174 262.147 645.297 262.147C645.298 257.312 631.605 256.651 628.707 256.206C628.707 255.546 628.707 255.546 628.707 254.886C625.884 254.128 623.626 252.906 620.741 252.906C620.741 252.246 620.741 252.246 620.741 251.585C595.432 254.607 576.348 272.709 550.065 272.709C550.065 272.049 550.065 272.049 550.065 271.389C546.741 270.675 545.18 268.519 545.18 264.788C544.566 264.788 544.562 264.788 543.948 264.788C546.084 253.312 550.519 230.462 566.04 230.462C572.812 230.462 577.236 229.691 582.014 225.841C597.346 213.488 610.959 198.584 626.286 186.234C633.092 180.75 659.511 178.709 661.272 173.032C662.955 167.607 659.424 163.112 659.424 157.849C658.81 157.849 658.85 157.849 658.236 157.849C657.171 152.129 652.169 143.366 646.53 141.346C646.53 140.686 646.53 140.686 646.53 140.026C645.608 140.026 645.603 140.026 644.681 140.026C644.681 139.366 644.681 139.366 644.681 138.706C642.199 137.817 643.021 136.725 640.413 136.725C640.413 136.065 640.413 136.065 640.413 135.405C637.559 134.383 636.489 132.466 633.635 131.445C633.635 130.784 633.635 130.784 633.635 130.124C629.741 129.078 626.28 128.574 623.162 128.54ZM573.433 411.993C573.433 423.937 557.383 438.606 553.761 450.28C554.683 450.61 554.688 450.61 555.61 450.94C567.821 424.701 592.699 427.705 612.116 417.274C612.116 430.278 611.117 443.242 610.311 456.221C608.268 456.77 604.15 456.694 604.15 453.581C578.352 444.342 572.023 454.679 546.412 460.182C546.412 448.672 540.003 422.843 534.09 413.314C540.892 413.314 547.446 418.595 555.61 418.595C561.74 418.595 567.67 411.993 573.433 411.993Z" fill="#ffffff" fill-rule="evenodd" opacity="1" stroke="none"/>
<path d="M412.453 120.223C404.186 120.223 395.343 122.763 399.559 134.085C404.632 147.712 421.621 152.452 426.579 165.771C428.12 169.908 427.329 171.596 427.195 176.332C426.699 193.933 429.938 212.059 425.963 229.142C422.636 243.442 385.209 246.965 376.191 246.965C376.191 239.674 362.604 246.224 378.039 262.807C389.722 275.359 410.599 277.33 425.963 277.33C425.014 291.605 439.541 364.465 407.524 364.465C407.524 363.805 407.524 363.805 407.524 363.145C405.041 362.256 405.82 361.165 403.211 361.165C403.211 360.504 403.211 360.504 403.211 359.844C400.979 359.045 402.051 359.184 400.175 359.184C400.175 351.304 376.487 354.893 371.878 357.864C350.224 371.822 343.291 409.402 358.984 430.477C375.567 452.748 385.611 424.985 395.246 414.634C396.961 412.791 404.663 398.722 407.524 400.771C409.338 402.071 410.826 409.162 411.837 411.333C427.556 445.11 406.816 488.599 454.832 471.404C454.832 465.558 459.145 459.567 459.145 451.6C459.145 428.661 445.236 366.733 456.064 349.282C463.723 336.94 477.319 330.138 486.166 318.257C476.012 321.893 461.807 340.041 451.752 340.041C450.408 332.824 451.518 340.304 451.752 327.499C452.15 305.691 444.387 280.851 454.832 262.147C460.38 252.214 508.918 249.487 508.918 237.723C508.918 233.32 507.069 228.93 507.069 224.521C506.455 224.521 506.452 224.521 505.837 224.521C505.837 223.531 505.837 223.531 505.837 222.54C505.223 222.54 505.219 222.54 504.605 222.54C504.912 221.88 504.914 221.88 505.221 221.22C497.331 216.982 493.6 206.698 483.701 206.698C483.701 206.038 483.701 206.038 483.701 205.377C475.166 204.359 461.251 209.906 456.681 208.678C459.936 198.184 471.423 188.456 471.423 176.332C471.423 170.98 468.343 166.119 468.343 161.15C467.728 161.15 467.725 161.15 467.11 161.15C467.418 160.49 467.419 160.49 467.726 159.83C467.112 159.83 467.153 159.83 466.538 159.83C466.845 159.169 466.803 159.169 467.11 158.509C466.189 158.179 466.228 158.179 465.306 157.849C465.306 152.997 452.554 139.366 448.099 139.366C448.099 138.706 448.099 138.706 448.099 138.046C447.177 138.046 447.172 138.046 446.251 138.046C446.251 137.386 446.251 137.386 446.251 136.725C438.103 133.807 430.254 124.843 420.418 124.843C420.418 124.183 420.418 124.183 420.418 123.523C417.438 122.456 415.735 121.543 412.453 121.543C412.453 120.883 412.453 120.883 412.453 120.223ZM382.968 359.184C385.331 364.261 392.141 366.723 395.246 371.726C390.998 371.726 385.978 375.868 381.736 377.007C381.736 371.793 377.922 361.895 382.968 359.184Z" fill="#ffffff" fill-rule="evenodd" opacity="1" stroke="none"/>
</g>
</g>
</g>
</g>
</svg>
