<?xml version="1.0" encoding="UTF-8" standalone="no"?>
<!DOCTYPE svg PUBLIC "-//W3C//DTD SVG 1.1//EN" "http://www.w3.org/Graphics/SVG/1.1/DTD/svg11.dtd">

<!-- Created with Vectornator (http://vectornator.io/) -->
<svg height="100%" stroke-miterlimit="10" style="fill-rule:nonzero;clip-rule:evenodd;stroke-linecap:round;stroke-linejoin:round;" version="1.1" viewBox="0 0 32 32" width="100%" xml:space="preserve" xmlns="http://www.w3.org/2000/svg" xmlns:vectornator="http://vectornator.io" xmlns:xlink="http://www.w3.org/1999/xlink">
<metadata>
<vectornator:setting key="IsTimeLapseWatermarkDisabled" value="false"/>
<vectornator:setting key="UndoHistoryDisabled" value="true"/>
<vectornator:setting key="VNDimensionsVisible" value="true"/>
<vectornator:setting key="VNSnapToGuides" value="true"/>
<vectornator:setting key="WDCMYKEnabledKey" value="false"/>
<vectornator:setting key="WDDisplayWhiteBackground" value="false"/>
<vectornator:setting key="WDDynamicGuides" value="false"/>
<vectornator:setting key="WDGuidesVisible" value="true"/>
<vectornator:setting key="WDIsolateActiveLayer" value="false"/>
<vectornator:setting key="WDOutlineMode" value="false"/>
<vectornator:setting key="WDRulersVisible" value="true"/>
<vectornator:setting key="WDSnapToEdges" value="false"/>
<vectornator:setting key="WDSnapToGrid" value="false"/>
<vectornator:setting key="WDSnapToPoints" value="false"/>
<vectornator:setting key="WDUnits" value="Pixels"/>
</metadata>
<defs/>
<g id="Layer-1" vectornator:layerName="Layer 1">
<g opacity="1">
<path d="M0.711895 0L31.2881 0C31.6813 0 32 0.353228 32 0.788957L32 31.211C32 31.6468 31.6813 32 31.2881 32L0.711895 32C0.318726 32 0 31.6468 0 31.211L0 0.788957C0 0.353228 0.318726 0 0.711895 0Z" fill="#da0a02" fill-rule="evenodd" opacity="1" stroke="none"/>
<g opacity="1">
<path d="M19.3132 17.5575C18.7729 17.5575 18.4319 17.8537 17.9196 18.011C16.5914 18.4187 15.1157 18.8881 13.7629 18.6458C13.7629 18.6232 13.7629 18.6232 13.7629 18.6005C13.6215 18.6005 13.5121 18.4871 13.3608 18.4871C12.9889 18.4871 13.6226 19.3589 13.7931 19.5724C13.6705 19.4614 13.5495 19.3766 13.4455 19.3487C13.4455 19.326 13.4455 19.326 13.4455 19.3034C11.8641 19.3034 13.0238 20.5322 13.0238 21.2532C13.0238 22.0802 12.9602 22.9745 12.8333 23.7926C12.5927 25.3436 11.838 26.9605 10.7232 27.987C10.2702 28.4042 9.71996 28.6757 9.2253 29.03C10.0079 29.1501 11.0818 28.4577 11.5893 27.9644C11.7914 27.7679 12.2125 27.1231 12.3058 27.1481C12.6163 27.2315 13.0463 28.9001 13.5936 28.962C14.1205 29.0216 14.4873 28.7782 14.9237 28.6219C15.9771 28.2446 17.3171 27.715 18.4683 27.715C19.578 27.715 20.5662 28.1636 21.5926 28.5312C21.7809 28.5986 22.4282 28.8346 22.563 28.6899C23.1653 28.0428 22.3297 27.5552 21.9508 27.1481C21.8259 27.0139 21.5199 26.604 21.3386 26.604C21.3386 26.5813 21.3386 26.5813 21.3386 26.5587C21.2486 26.5587 21.267 26.5169 21.1693 26.4906C21.1693 26.468 21.1693 26.468 21.1693 26.4453C21.1071 26.4453 21.0424 26.4133 20.9804 26.3999C20.9804 26.3773 20.9804 26.3773 20.9804 26.3546C19.6398 26.3546 18.3555 26.8493 16.9915 27.0121C16.5668 27.0628 16.0804 27.238 15.6614 27.1255C16.0608 26.2672 17.6248 25.001 17.6248 24.0193C18.4885 23.7873 19.048 24.246 19.8407 24.246C20.112 24.246 20.2056 23.5205 19.9873 23.5205C19.9873 23.1557 19.1651 22.7858 19.1651 22.5002C18.6918 22.5002 18.2616 22.5733 17.7926 22.6363C17.7926 22.4238 17.9726 21.0265 17.6883 21.0265C17.6989 21.0038 17.6989 21.0038 17.7095 20.9811C17.6884 20.9811 17.6882 20.9811 17.6671 20.9811C17.6671 20.8585 17.4167 20.6122 17.3074 20.573C17.3074 20.5504 17.3074 20.5504 17.3074 20.5277C17.2757 20.5277 17.2756 20.5277 17.2439 20.5277C17.2439 20.505 17.2439 20.505 17.2439 20.4823C17.1795 20.4823 17.1396 20.4924 17.1396 20.4143C17.108 20.4143 17.1078 20.4143 17.0761 20.4143C17.0761 20.3916 17.0761 20.3916 17.0761 20.369C17.0049 20.369 17.0472 20.3726 16.9492 20.3463C16.9492 20.3236 16.9492 20.3236 16.9492 20.301C16.878 20.301 16.9203 20.3046 16.8222 20.2783C16.8222 20.2556 16.8222 20.2556 16.8222 20.2329C16.7511 20.2329 16.6544 20.2307 16.6544 20.1422C16.59 20.1422 16.5486 20.1523 16.5486 20.0742C16.4842 20.0742 16.4428 20.0843 16.4428 20.0062C16.3784 20.0062 16.337 20.0163 16.337 19.9382C16.3054 19.9382 16.3052 19.9382 16.2735 19.9382C16.2735 19.9155 16.2735 19.9155 16.2735 19.8928C16.2524 19.8928 16.2523 19.8928 16.2312 19.8928C16.2939 19.7581 16.673 19.7404 16.801 19.6888C17.4332 19.4341 18.5791 18.9388 19.2497 19.1446C19.5178 19.2269 20.3815 19.8551 20.6207 19.5981C21.185 18.9917 19.812 17.6482 19.3767 17.6482C19.3767 17.6256 19.3767 17.6256 19.3767 17.6029C19.345 17.6029 19.3448 17.6029 19.3132 17.6029C19.3132 17.5802 19.3132 17.5802 19.3132 17.5575ZM13.9473 19.7296C14.2845 19.9876 14.729 19.8915 15.1127 20.0289C15.8867 20.3061 16.075 21.301 16.1466 22.0694C16.178 22.4075 16.2767 22.7723 16.2524 23.1124C16.2509 23.1322 15.6998 23.2951 15.6402 23.3164C15.2001 23.4741 13.7816 24.08 13.6148 23.4525C13.4969 23.0094 13.9951 21.9333 14.2904 21.616C14.3936 21.5051 14.6175 21.443 14.6486 21.2759C14.723 20.8765 14.3464 20.1706 13.9473 19.7296ZM13.5936 23.9286C14.4613 24.8609 14.8696 25.1701 16.1677 24.4728C16.1677 25.1656 16.0764 25.8035 15.7883 26.4226C15.8343 26.3979 15.8693 26.402 15.9153 26.3773C15.9153 27.3486 14.6776 27.242 14.1423 27.2615C13.6057 27.2811 13.0018 27.3655 12.6444 26.8534C12.5724 26.7503 13.4504 24.2364 13.5936 23.9286Z" fill="#ffffff" fill-rule="evenodd" opacity="1" stroke="none"/>
<g opacity="1">
<path d="M19.818 3.24193C19.0683 3.23385 18.9019 4.01992 18.3624 4.79275C18.2539 4.94828 17.9307 5.5863 17.7518 5.5863C17.7206 5.18392 17.7306 4.70492 17.7306 4.33929C17.7095 4.33929 17.7094 4.33929 17.6883 4.33929C17.6883 4.30528 17.6883 4.30528 17.6883 4.27127C17.6672 4.27127 17.6671 4.27127 17.646 4.27127C17.6038 4.13524 17.3709 3.88584 17.2439 3.88584C17.2439 3.86316 17.2439 3.86316 17.2439 3.84049C17.2123 3.84049 17.2136 3.84049 17.1819 3.84049C17.1819 3.76015 17.1005 3.7498 17.0338 3.7498C17.0338 3.64855 16.914 3.65911 16.8434 3.65911C16.8434 3.63644 16.8434 3.63644 16.8434 3.61376C16.5817 3.52005 15.3878 3.3564 15.3878 3.9992C15.3878 4.22595 16.1129 4.4705 16.2312 4.72473C16.565 5.44209 16.427 6.5697 16.3793 7.28676C16.3426 7.83953 14.9237 8.7667 14.9237 9.21395C15.4393 9.07548 15.9726 8.19833 16.4005 7.85358C16.5055 8.86876 17.1343 8.8496 17.8984 9.12326C16.2313 10.3173 15.9063 10.7454 15.6825 12.9096C15.6211 13.5031 15.7099 14.6865 16.2947 15.0635C16.8907 15.4477 17.5142 14.8822 18.0889 14.8822C18.488 14.8822 18.8691 15.0182 19.2497 15.0182C19.1367 15.7467 19.4488 16.4092 20.2624 16.3332C20.453 16.3154 21.0266 16.0022 20.8958 15.721C21.0543 15.6359 20.8816 15.3094 21.0016 15.2449C20.8727 14.691 21.0649 13.824 21.0847 13.2497C21.0952 13.3291 21.0953 13.3291 21.1059 13.4084C21.0859 12.9587 20.97 12.1993 21.1905 11.844C21.3398 11.6034 21.6976 11.6275 21.8027 11.3452C21.8529 11.2102 21.7835 10.8476 21.6545 10.7784C21.6651 10.7557 21.6651 10.7557 21.6757 10.733C21.4523 10.613 21.2278 10.0755 20.9592 10.0755C20.9592 10.0528 20.9592 10.0528 20.9592 10.0302C20.9276 10.0302 20.9274 10.0302 20.8958 10.0302C20.8958 10.0075 20.8958 10.0075 20.8958 9.98482C20.8641 9.98482 20.8639 9.98482 20.8323 9.98482C20.8323 9.96215 20.8323 9.96215 20.8323 9.93948C20.7556 9.91203 20.7909 9.91681 20.7265 9.91681C20.7265 9.81556 20.6066 9.82611 20.536 9.82611C20.536 9.80344 20.536 9.80344 20.536 9.78077C20.2054 9.69197 19.8033 9.78667 19.4598 9.80344C19.1039 9.82082 16.279 10.2494 16.5486 11.1185C17.3746 11.1185 18.0686 10.4042 18.828 10.3022C19.0267 10.2756 19.5656 10.5973 19.5656 10.8464C19.5656 11.2423 19.5143 11.6542 19.481 12.0481C19.4199 12.0152 19.4557 12.0254 19.3767 12.0254C19.3767 12.0027 19.3767 12.0027 19.3767 11.98C19.3 11.9526 19.3353 11.9574 19.2709 11.9574C19.2709 11.9347 19.2709 11.9347 19.2709 11.912C19.1942 11.8846 19.2295 11.8893 19.1651 11.8893C19.1651 11.8667 19.1651 11.8667 19.1651 11.844C18.081 11.4558 17.7777 12.7056 16.801 12.7056C16.801 12.5737 16.5909 12.6054 16.5909 12.4335C16.5698 12.4335 16.5697 12.4335 16.5486 12.4335C16.5592 12.4108 16.5592 12.4108 16.5698 12.3881C16.5141 12.3284 16.5521 12.2881 16.4851 12.2521C16.4957 12.2294 16.4957 12.2294 16.5063 12.2068C16.4852 12.2068 16.4851 12.2068 16.464 12.2068C16.4745 12.1841 16.4746 12.1841 16.4851 12.1614C15.8788 11.8357 16.5565 10.5457 16.928 10.2796C17.5896 9.80571 18.4407 8.98137 19.2709 8.78317C19.6888 8.68339 20.2404 8.89673 20.6207 8.69247C20.8347 8.57752 21.0391 7.89893 20.6841 7.89893C20.6841 7.87625 20.6841 7.87625 20.6841 7.85358C20.6075 7.82613 20.6428 7.83091 20.5783 7.83091C20.5783 7.66483 20.1081 7.64213 20.0085 7.62685C20.0085 7.60418 20.0085 7.60418 20.0085 7.58151C19.9116 7.55547 19.834 7.51349 19.7349 7.51349C19.7349 7.49081 19.7349 7.49081 19.7349 7.46814C18.8656 7.57191 18.2101 8.19367 17.3074 8.19367C17.3074 8.171 17.3074 8.171 17.3074 8.14833C17.1932 8.12379 17.1396 8.04974 17.1396 7.9216C17.1185 7.9216 17.1184 7.9216 17.0973 7.9216C17.1707 7.52745 17.323 6.74261 17.8561 6.74261C18.0887 6.74261 18.2407 6.71614 18.4048 6.5839C18.9313 6.1596 19.3989 5.64771 19.9254 5.22353C20.1591 5.03518 21.0665 4.96508 21.127 4.77008C21.1848 4.58377 21.0635 4.42935 21.0635 4.2486C21.0424 4.2486 21.0438 4.2486 21.0227 4.2486C20.9861 4.05214 20.8143 3.75114 20.6207 3.68178C20.6207 3.65911 20.6207 3.65911 20.6207 3.63644C20.589 3.63644 20.5888 3.63644 20.5572 3.63644C20.5572 3.61376 20.5572 3.61376 20.5572 3.59109C20.4719 3.56055 20.5002 3.52307 20.4106 3.52307C20.4106 3.5004 20.4106 3.5004 20.4106 3.47773C20.3126 3.44263 20.2758 3.37679 20.1778 3.34169C20.1778 3.31902 20.1778 3.31902 20.1778 3.29634C20.044 3.26042 19.9252 3.24308 19.818 3.24193ZM18.11 12.9776C18.11 13.3879 17.5588 13.8917 17.4344 14.2927C17.466 14.304 17.4662 14.304 17.4979 14.3153C17.9173 13.4141 18.7717 13.5173 19.4386 13.159C19.4386 13.6056 19.4043 14.0509 19.3767 14.4967C19.3065 14.5156 19.1651 14.513 19.1651 14.406C18.279 14.0887 18.0616 14.4437 17.1819 14.6328C17.1819 14.2374 16.9618 13.3503 16.7587 13.023C16.9924 13.023 17.2174 13.2044 17.4979 13.2044C17.7084 13.2044 17.9121 12.9776 18.11 12.9776Z" fill="#ffffff" fill-rule="evenodd" opacity="1" stroke="none"/>
<path d="M12.5809 2.95625C12.2969 2.95625 11.9932 3.04349 12.138 3.43238C12.3123 3.90043 12.8958 4.06324 13.0661 4.52068C13.119 4.66278 13.0918 4.72076 13.0872 4.88344C13.0702 5.48796 13.1814 6.11053 13.0449 6.69727C12.9306 7.18844 11.6451 7.30943 11.3354 7.30943C11.3354 7.05901 10.8687 7.284 11.3989 7.85358C11.8001 8.28469 12.5172 8.35238 13.0449 8.35238C13.0123 8.84268 13.5113 11.3452 12.4116 11.3452C12.4116 11.3225 12.4116 11.3225 12.4116 11.2998C12.3263 11.2693 12.3531 11.2318 12.2635 11.2318C12.2635 11.2092 12.2635 11.2092 12.2635 11.1865C12.1868 11.159 12.2236 11.1638 12.1592 11.1638C12.1592 10.8931 11.3456 11.0164 11.1873 11.1185C10.4435 11.5979 10.2054 12.8886 10.7444 13.6125C11.314 14.3774 11.659 13.4238 11.9899 13.0683C12.0488 13.005 12.3133 12.5218 12.4116 12.5922C12.4739 12.6368 12.525 12.8804 12.5597 12.955C13.0996 14.1151 12.3873 15.6088 14.0365 15.0182C14.0365 14.8174 14.1846 14.6116 14.1846 14.338C14.1846 13.5501 13.7069 11.4231 14.0788 10.8237C14.3418 10.3998 14.8088 10.1662 15.1127 9.7581C14.7639 9.88299 14.276 10.5063 13.9307 10.5063C13.8845 10.2584 13.9226 10.5153 13.9307 10.0755C13.9443 9.3265 13.6777 8.4733 14.0365 7.83091C14.227 7.48972 15.8941 7.39607 15.8941 6.99201C15.8941 6.84078 15.8306 6.69001 15.8306 6.53856C15.8095 6.53856 15.8094 6.53856 15.7883 6.53856C15.7883 6.50455 15.7883 6.50455 15.7883 6.47054C15.7672 6.47054 15.7671 6.47054 15.746 6.47054C15.7566 6.44787 15.7566 6.44787 15.7672 6.42519C15.4962 6.27962 15.368 5.92639 15.028 5.92639C15.028 5.90372 15.028 5.90372 15.028 5.88104C14.7349 5.84605 14.2569 6.03657 14.1 5.99441C14.2118 5.63396 14.6063 5.29985 14.6063 4.88344C14.6063 4.69962 14.5005 4.53265 14.5005 4.36197C14.4794 4.36197 14.4793 4.36197 14.4582 4.36197C14.4687 4.33929 14.4688 4.33929 14.4793 4.31662C14.4582 4.31662 14.4596 4.31662 14.4385 4.31662C14.4491 4.29395 14.4476 4.29395 14.4582 4.27127C14.4265 4.25994 14.4279 4.25994 14.3962 4.2486C14.3962 4.08196 13.9582 3.61376 13.8052 3.61376C13.8052 3.59109 13.8052 3.59109 13.8052 3.56842C13.7736 3.56842 13.7734 3.56842 13.7417 3.56842C13.7417 3.54574 13.7417 3.54574 13.7417 3.52307C13.4619 3.42285 13.1923 3.11496 12.8545 3.11496C12.8545 3.09229 12.8545 3.09229 12.8545 3.06962C12.7521 3.03296 12.6936 3.0016 12.5809 3.0016C12.5809 2.97892 12.5809 2.97892 12.5809 2.95625ZM11.5682 11.1638C11.6493 11.3382 11.8832 11.4227 11.9899 11.5946C11.844 11.5946 11.6715 11.7368 11.5258 11.776C11.5258 11.5969 11.3948 11.2569 11.5682 11.1638Z" fill="#ffffff" fill-rule="evenodd" opacity="1" stroke="none"/>
</g>
</g>
</g>
</g>
</svg>
